# File created by Blade
# Date/Time:  Wed Jan 21 17:34:04 2015
# Frame Rate: 120.000 fps
#------------------------------------------------------
:FULLY-SPECIFIED
:DEGREES
763
root 19.665230 5.377354 -20.504846 -169.422211 -34.762368 -143.867625
Spine -15.813002 -4.437833 38.355723
Head 8.271541 -24.272497 3.517326
LeftShoulder -13.134387 -11.936960 6.400112
LeftArm -22.370941 12.819479 -84.476996
LeftForeArm 6.264416 -0.000000 15.737673
LeftHand 4.927421 -0.000000 -2.049800
LeftHandThumb1 -26.253704 0.000000 33.147579
RightShoulder -31.029087 -17.331945 12.770219
RightArm -53.724405 76.885869 19.972549
RightForeArm 21.988682 -0.000000 112.142449
RightHand -3.428745 -0.000000 -17.865093
RightHandThumb1 -24.326973 -0.000000 -32.862282
LeftUpLeg -97.841186 -27.174832 -53.800410
LeftLeg 136.916282 -0.000000 -0.000000
LeftFoot 29.713353 20.503553 3.397786
LeftToeBase 23.929167 -0.000000 -0.000000
RightUpLeg 16.955814 37.442320 -14.111864
RightLeg 129.737623 -0.000000 -0.000000
RightFoot 42.665736 -20.663890 -17.132475
RightToeBase 16.831056 -0.000000 -0.000000
764
root 19.664781 5.378675 -20.502276 -169.495845 -34.734875 -143.847069
Spine -15.850116 -4.511546 38.422856
Head 7.982395 -24.050986 3.430152
LeftShoulder -13.074245 -12.068277 6.479290
LeftArm -22.400152 12.504971 -84.551935
LeftForeArm 6.461647 -0.000000 15.283741
LeftHand 5.036746 -0.000000 -1.912111
LeftHandThumb1 -26.253704 0.000000 33.147579
RightShoulder -30.948684 -17.267003 12.652957
RightArm -53.423298 76.800161 20.222660
RightForeArm 21.709152 -0.000000 112.390396
RightHand -3.489263 -0.000000 -17.819906
RightHandThumb1 -24.326973 -0.000000 -32.862282
LeftUpLeg -97.808688 -27.109807 -53.834372
LeftLeg 136.915683 -0.000000 -0.000000
LeftFoot 29.693135 20.628229 3.380953
LeftToeBase 23.852166 -0.000000 -0.000000
RightUpLeg 17.010650 37.615336 -14.057534
RightLeg 129.798150 -0.000000 -0.000000
RightFoot 42.687221 -20.453057 -17.368290
RightToeBase 16.574540 -0.000000 -0.000000
765
root 19.665194 5.380549 -20.497700 -169.561005 -34.691492 -143.831349
Spine -15.863508 -4.550815 38.469614
Head 7.665667 -23.824107 3.358790
LeftShoulder -13.004057 -12.123487 6.530362
LeftArm -22.327687 12.180321 -84.580754
LeftForeArm 6.518081 -0.000000 14.822528
LeftHand 5.206348 -0.000000 -1.868478
LeftHandThumb1 -26.253704 0.000000 33.147579
RightShoulder -30.945009 -17.250753 12.610291
RightArm -52.946803 76.825178 20.616654
RightForeArm 21.105069 -0.000000 112.601120
RightHand -3.682974 -0.000000 -17.564674
RightHandThumb1 -24.326973 -0.000000 -32.862282
LeftUpLeg -97.797987 -27.035373 -53.850882
LeftLeg 136.906326 -0.000000 -0.000000
LeftFoot 29.672678 20.715596 3.362965
LeftToeBase 23.815988 -0.000000 -0.000000
RightUpLeg 17.040063 37.801015 -14.026035
RightLeg 129.842542 -0.000000 -0.000000
RightFoot 42.633898 -20.468007 -17.394845
RightToeBase 16.828935 -0.000000 -0.000000
766
root 19.666431 5.382788 -20.492371 -169.627003 -34.626507 -143.794636
Spine -15.869645 -4.582894 38.545379
Head 7.357175 -23.631986 3.260982
LeftShoulder -12.939496 -12.195709 6.580136
LeftArm -22.283210 11.944748 -84.649751
LeftForeArm 6.517112 0.000000 14.348965
LeftHand 5.352048 -0.000000 -1.744156
LeftHandThumb1 -26.253704 0.000000 33.147579
RightShoulder -30.904796 -17.198598 12.524365
RightArm -52.299550 76.742337 21.193969
RightForeArm 20.798662 -0.000000 112.834283
RightHand -3.678642 0.000000 -17.673923
RightHandThumb1 -24.326973 -0.000000 -32.862282
LeftUpLeg -97.813861 -26.961228 -53.850852
LeftLeg 136.902842 -0.000000 -0.000000
LeftFoot 29.646329 20.790276 3.394327
LeftToeBase 23.815948 -0.000000 -0.000000
RightUpLeg 17.053337 38.019275 -13.981712
RightLeg 129.894226 -0.000000 -0.000000
RightFoot 42.654758 -20.530158 -17.378805
RightToeBase 16.726277 -0.000000 -0.000000
